<svg xmlns="http://www.w3.org/2000/svg" version="1.1" xmlns:xlink="http://www.w3.org/1999/xlink" xmlns:svgjs="http://svgjs.com/svgjs" width="500" height="500"><svg xmlns="http://www.w3.org/2000/svg" xmlns:xlink="http://www.w3.org/1999/xlink" width="500" zoomAndPan="magnify" viewBox="0 0 375 374.999991" height="500" preserveAspectRatio="xMidYMid meet" version="1.0"><defs><g></g></defs><g fill="#000000" fill-opacity="1"><g transform="translate(-13.014713, 261.744944)"><g><path d="M 46.859375 -27.53125 C 40.953125 -27.53125 35.554688 -28.976562 30.671875 -31.875 C 25.796875 -34.78125 21.90625 -38.675781 19 -43.5625 C 16.09375 -48.445312 14.640625 -53.84375 14.640625 -59.75 C 14.640625 -65.695312 16.09375 -71.097656 19 -75.953125 C 21.90625 -80.816406 25.796875 -84.695312 30.671875 -87.59375 C 35.554688 -90.5 40.953125 -91.953125 46.859375 -91.953125 C 52.816406 -91.953125 58.222656 -90.5 63.078125 -87.59375 C 67.929688 -84.695312 71.8125 -80.816406 74.71875 -75.953125 C 77.625 -71.097656 79.078125 -65.695312 79.078125 -59.75 C 79.078125 -53.84375 77.625 -48.445312 74.71875 -43.5625 C 71.8125 -38.675781 67.929688 -34.78125 63.078125 -31.875 C 58.222656 -28.976562 52.816406 -27.53125 46.859375 -27.53125 Z M 46.859375 -27.53125 "></path></g></g></g><g fill="#000000" fill-opacity="1"><g transform="translate(80.700074, 261.744944)"><g><path d="M 46.78125 0 L 3.875 -149.9375 L 38.515625 -149.9375 L 63.328125 -45.765625 L 64.578125 -45.765625 L 91.953125 -149.9375 L 121.609375 -149.9375 L 148.921875 -45.546875 L 150.234375 -45.546875 L 175.0625 -149.9375 L 209.6875 -149.9375 L 166.78125 0 L 135.890625 0 L 107.328125 -98.03125 L 106.15625 -98.03125 L 77.6875 0 Z M 46.78125 0 "></path></g></g></g><g fill="#000000" fill-opacity="1"><g transform="translate(294.2673, 261.744944)"><g><path d="M 46.859375 -27.53125 C 40.953125 -27.53125 35.554688 -28.976562 30.671875 -31.875 C 25.796875 -34.78125 21.90625 -38.675781 19 -43.5625 C 16.09375 -48.445312 14.640625 -53.84375 14.640625 -59.75 C 14.640625 -65.695312 16.09375 -71.097656 19 -75.953125 C 21.90625 -80.816406 25.796875 -84.695312 30.671875 -87.59375 C 35.554688 -90.5 40.953125 -91.953125 46.859375 -91.953125 C 52.816406 -91.953125 58.222656 -90.5 63.078125 -87.59375 C 67.929688 -84.695312 71.8125 -80.816406 74.71875 -75.953125 C 77.625 -71.097656 79.078125 -65.695312 79.078125 -59.75 C 79.078125 -53.84375 77.625 -48.445312 74.71875 -43.5625 C 71.8125 -38.675781 67.929688 -34.78125 63.078125 -31.875 C 58.222656 -28.976562 52.816406 -27.53125 46.859375 -27.53125 Z M 46.859375 -27.53125 "></path></g></g></g></svg><style>@media (prefers-color-scheme: light) { :root { filter: none; } }
@media (prefers-color-scheme: dark) { :root { filter: invert(100%); } }
</style></svg>